<svg xmlns="http://www.w3.org/2000/svg" width="64" height="64" viewBox="0 0 64 64">
  <path d="M36.724,21.649c-2.616-3.212-7.828-5.877-11.04-3.261s-1.655,8.26.961,11.471c2.281,2.8,5.095,3.413,7.907,1.791L53.574,55l2.326-1.9L36.878,29.755C39.036,27.329,39.005,24.449,36.724,21.649Z" fill="none" stroke="#2898e0" stroke-linecap="round" stroke-linejoin="round" stroke-width="1.6"/>
  <path d="M44.9,11.2a10.7,10.7,0,0,0-4.6,1.03,10.769,10.769,0,0,0-16.8,0A10.8,10.8,0,0,0,8.1,22a10.838,10.838,0,0,0,8,10.43V53c0,.56,0,1.19,5.07,2a70.354,70.354,0,0,0,10.73.8A70.354,70.354,0,0,0,42.63,55c5.07-.81,5.07-1.44,5.07-2V51.58l-1.6-1.96v2.97c-1.34.51-7.03,1.61-14.2,1.61s-12.86-1.1-14.2-1.61V46.28a29.447,29.447,0,0,0,3.47.72,70.233,70.233,0,0,0,10.73.8A70.233,70.233,0,0,0,42.63,47c.43-.07.82-.14,1.17-.2l-1.16-1.43a67.975,67.975,0,0,1-10.74.83c-7.18,0-12.86-1.1-14.2-1.61V31.8a.794.794,0,0,0-.64-.78A9.2,9.2,0,0,1,18.9,12.8a9.122,9.122,0,0,1,4.44,1.15.8.8,0,0,0,1.04-.24,9.187,9.187,0,0,1,15.04,0,.8.8,0,0,0,1.04.24A9.122,9.122,0,0,1,44.9,12.8a9.2,9.2,0,0,1,1.84,18.22.794.794,0,0,0-.64.78v5.49l1.6,1.97V32.43A10.8,10.8,0,0,0,44.9,11.2Z" fill="#fff"/>
</svg>
