<svg xmlns="http://www.w3.org/2000/svg" width="128" height="128" viewBox="0 0 128 128">
  <path d="M65.5,48.5a100.4,100.4,0,0,1,9.62-14.84A27,27,0,0,1,79.9,28.5s-1.52-9.32,4.6-14c5.5-4.2,10-4.5,14-8.5.38,1.44,5.74,23.32-13,25.5a26.25,26.25,0,0,1-2.42,6.76c-1.38,3-3.26,6.62-5.38,10.24m2.2-20,5.6,3m-2.42,6.76-8-4.6" fill="none" stroke="#177fc6" stroke-linejoin="round" stroke-width="3"/>
  <path d="M102,48.26a1.28,1.28,0,0,0-.07-.28,1.34,1.34,0,0,0-.12-.24.8.8,0,0,0-.15-.21l-8.43-10A1.51,1.51,0,0,0,92.06,37H88.52c-.41,1-.86,2.07-1.29,3h4.13l5.91,7H31.12l7-7H65.19c.63-1,1.28-2,1.94-3H37.5a1.5,1.5,0,0,0-1.06.44l-10,10s0,0,0,0a1.69,1.69,0,0,0-.31.46,1.62,1.62,0,0,0-.11.58v60a1.5,1.5,0,0,0,1.5,1.5h73a1.5,1.5,0,0,0,1.5-1.5v-60A2.11,2.11,0,0,0,102,48.26ZM99,107H29V50H99Z" fill="#222"/>
  <path d="M64,70V92M56,82l8,10,8-10" fill="none" stroke="#177fc6" stroke-linecap="round" stroke-linejoin="round" stroke-width="3"/>
</svg>
