<svg xmlns="http://www.w3.org/2000/svg" width="64" height="64" viewBox="0 0 64 64">
  <path d="M36.31,16.58l4,2.35M38.7,14l2.8,1.5M37.6,24l.46-.8c.67-1.18,1.28-2.34,1.8-3.4l.43-.92.31-.68a17.52,17.52,0,0,0,.79-2.13,3.82,3.82,0,0,0,.11-.57,9.88,9.88,0,0,0,1.62-.32c5.29-1.47,5.61-6.69,5.29-9.81-.07-.71-.18-1.31-.26-1.73S48,3.08,48,3c-2,2-4.25,1.9-7,4-3.06,2.34-2.3,7-2.3,7a13.3,13.3,0,0,0-2.39,2.58c-.39.49-.8,1-1.21,1.62s-.74,1-1.1,1.6c-.72,1.07-1.42,2.22-2.07,3.4-.15.26-.29.53-.43.8" fill="none" stroke="#2898e0" stroke-linejoin="round" stroke-width="1.6"/>
  <path d="M31,35V46m-4-5,4,5,4-5" fill="none" stroke="#2898e0" stroke-linecap="round" stroke-linejoin="round" stroke-width="1.6"/>
  <path d="M43.2,18.2l-.69,1.6h1.16l3.4,3.4H14.93l3.4-3.4H31.14l1-1.6H18a.81.81,0,0,0-.57.23l-5,5a1.06,1.06,0,0,0-.17.26.81.81,0,0,0-.06.31V54a.8.8,0,0,0,.8.8H49a.8.8,0,0,0,.8-.8V24a.81.81,0,0,0-.06-.31,1.06,1.06,0,0,0-.17-.26l-5-5A.81.81,0,0,0,44,18.2Zm5,6.6V53.2H13.8V24.8Z" fill="#fff"/>
</svg>
