<svg xmlns="http://www.w3.org/2000/svg" width="64" height="64" viewBox="0 0 64 64">
  <path d="M59,30V46a2.006,2.006,0,0,1-2,2h-.17s-.19.11-.41.25a3.351,3.351,0,0,0-.42,2A1.9,1.9,0,0,1,54,52H48a1.9,1.9,0,0,1-2-1.75,3.351,3.351,0,0,0-.42-2c-.22-.14-.41-.25-.41-.25H45a2.006,2.006,0,0,1-2-2v-.8H40V46H33l1,6H24l1-6H6a2.006,2.006,0,0,1-2-2V14a2.006,2.006,0,0,1,2-2H52a2.006,2.006,0,0,1,2,2v7h-.8v3H54a1.9,1.9,0,0,1,2,1.75,3.351,3.351,0,0,0,.42,2c.22.14.41.25.41.25H57A2.006,2.006,0,0,1,59,30Z" fill="#fff"/>
  <path d="M34,52l-1-6M20,52H38M24,52l1-6M54,21V14a2.006,2.006,0,0,0-2-2H6a2.006,2.006,0,0,0-2,2V44a2.006,2.006,0,0,0,2,2H40" fill="none" stroke="#222" stroke-linecap="round" stroke-linejoin="round" stroke-width="1.6"/>
  <path d="M56.83,48l-.415.25a3.368,3.368,0,0,0-.415,2A1.893,1.893,0,0,1,54,52H48a1.893,1.893,0,0,1-2-1.75,3.368,3.368,0,0,0-.415-2L45.17,48M56.83,28l-.415-.25a3.365,3.365,0,0,1-.415-2A1.894,1.894,0,0,0,54,24H48a1.894,1.894,0,0,0-2,1.75,3.365,3.365,0,0,1-.415,2L45.17,28M59,30a2.006,2.006,0,0,0-2-2H45a2.006,2.006,0,0,0-2,2V46a2.006,2.006,0,0,0,2,2H57a2.006,2.006,0,0,0,2-2Zm1,3v3m-9-2v4l4,3" fill="none" stroke="#177fc6" stroke-linecap="round" stroke-linejoin="round" stroke-width="1.6"/>
</svg>
