<svg xmlns="http://www.w3.org/2000/svg" width="64" height="64" viewBox="0 0 64 64">
  <path d="M34,52l-1-6M20,52H38M24,52l1-6M54,21V14a2.006,2.006,0,0,0-2-2H6a2.006,2.006,0,0,0-2,2V44a2.006,2.006,0,0,0,2,2H40" fill="none" stroke="#fff" stroke-linecap="round" stroke-linejoin="round" stroke-width="1.6"/>
  <path d="M56.83,48l-.415.25a3.368,3.368,0,0,0-.415,2A1.893,1.893,0,0,1,54,52H48a1.893,1.893,0,0,1-2-1.75,3.368,3.368,0,0,0-.415-2L45.17,48M56.83,28l-.415-.25a3.365,3.365,0,0,1-.415-2A1.894,1.894,0,0,0,54,24H48a1.894,1.894,0,0,0-2,1.75,3.365,3.365,0,0,1-.415,2L45.17,28M59,30a2.006,2.006,0,0,0-2-2H45a2.006,2.006,0,0,0-2,2V46a2.006,2.006,0,0,0,2,2H57a2.006,2.006,0,0,0,2-2Zm1,3v3m-9-2v4l4,3" fill="none" stroke="#2898e0" stroke-linecap="round" stroke-linejoin="round" stroke-width="1.6"/>
</svg>
